<?xml version="1.0" encoding="UTF-8" standalone="no"?>
<svg
   xmlns:dc="http://purl.org/dc/elements/1.1/"
   xmlns:cc="http://creativecommons.org/ns#"
   xmlns:rdf="http://www.w3.org/1999/02/22-rdf-syntax-ns#"
   xmlns:svg="http://www.w3.org/2000/svg"
   xmlns="http://www.w3.org/2000/svg"
   xmlns:sodipodi="http://sodipodi.sourceforge.net/DTD/sodipodi-0.dtd"
   xmlns:inkscape="http://www.inkscape.org/namespaces/inkscape"
   width="15.768902mm"
   height="20.579754mm"
   viewBox="0 0 15.768902 20.579754"
   version="1.1"
   id="svg2157"
   inkscape:version="1.0.1 (3bc2e813f5, 2020-09-07)"
   sodipodi:docname="CvIcon.svg">
  <defs
     id="defs2151" />
  <sodipodi:namedview
     id="base"
     pagecolor="#ffffff"
     bordercolor="#666666"
     borderopacity="1.0"
     inkscape:pageopacity="0.0"
     inkscape:pageshadow="2"
     inkscape:zoom="5.6"
     inkscape:cx="78.059336"
     inkscape:cy="35.715392"
     inkscape:document-units="mm"
     inkscape:current-layer="layer1"
     inkscape:document-rotation="0"
     showgrid="false"
     inkscape:window-width="1920"
     inkscape:window-height="1001"
     inkscape:window-x="-9"
     inkscape:window-y="-9"
     inkscape:window-maximized="1"
     fit-margin-top="0"
     fit-margin-left="0"
     fit-margin-right="0"
     fit-margin-bottom="0" />
  <metadata
     id="metadata2154">
    <rdf:RDF>
      <cc:Work
         rdf:about="">
        <dc:format>image/svg+xml</dc:format>
        <dc:type
           rdf:resource="http://purl.org/dc/dcmitype/StillImage" />
        <dc:title></dc:title>
      </cc:Work>
    </rdf:RDF>
  </metadata>
  <g
     inkscape:label="Layer 1"
     inkscape:groupmode="layer"
     id="layer1"
     transform="translate(-88.466217,-123.21125)">
    <path
       id="rect2720"
       style="fill:#828282;fill-opacity:1;fill-rule:evenodd;stroke-width:208.139"
       d="M 0 0 L 0 77.78125 L 59.599609 77.78125 L 59.599609 0 L 0 0 z M 18.097656 26.376953 C 19.548635 26.376953 20.942442 26.538242 22.277344 26.863281 C 23.612245 27.188295 24.89457 27.670156 26.125 28.308594 L 26.125 33.689453 C 24.882962 32.842083 23.658386 32.220855 22.451172 31.826172 C 21.243955 31.431514 19.973573 31.234375 18.638672 31.234375 C 16.247458 31.234375 14.36582 32.000983 12.996094 33.533203 C 11.62637 35.065449 10.941406 37.17808 10.941406 39.871094 C 10.941406 42.552517 11.62637 44.659186 12.996094 46.191406 C 14.36582 47.723652 16.247458 48.488281 18.638672 48.488281 C 19.973573 48.488281 21.243955 48.291168 22.451172 47.896484 C 23.658386 47.501826 24.882962 46.880573 26.125 46.033203 L 26.125 51.414062 C 24.89457 52.0525 23.612245 52.534361 22.277344 52.859375 C 20.942442 53.184389 19.548635 53.347656 18.097656 53.347656 C 13.767933 53.347656 10.339103 52.139047 7.8085938 49.724609 C 5.2780867 47.298581 4.0117188 44.015094 4.0117188 39.871094 C 4.0117188 35.715503 5.2780867 32.430063 7.8085938 30.015625 C 10.339103 27.589571 13.767933 26.376953 18.097656 26.376953 z M 28.580078 26.845703 L 35.318359 26.845703 L 42.214844 46.033203 L 49.091797 26.845703 L 55.830078 26.845703 L 46.201172 52.841797 L 38.208984 52.841797 L 28.580078 26.845703 z "
       transform="matrix(0.26458333,0,0,0.26458333,88.466217,123.21125)" />
  </g>
</svg>
