<?xml version="1.0" encoding="UTF-8" standalone="no"?>
<svg
   xmlns:dc="http://purl.org/dc/elements/1.1/"
   xmlns:cc="http://creativecommons.org/ns#"
   xmlns:rdf="http://www.w3.org/1999/02/22-rdf-syntax-ns#"
   xmlns:svg="http://www.w3.org/2000/svg"
   xmlns="http://www.w3.org/2000/svg"
   xmlns:sodipodi="http://sodipodi.sourceforge.net/DTD/sodipodi-0.dtd"
   xmlns:inkscape="http://www.inkscape.org/namespaces/inkscape"
   width="200mm"
   height="200mm"
   viewBox="0 0 200 200"
   version="1.1"
   id="svg8"
   inkscape:version="1.0.1 (3bc2e813f5, 2020-09-07)"
   sodipodi:docname="DiscordIcon.svg">
  <defs
     id="defs2" />
  <sodipodi:namedview
     id="base"
     pagecolor="#ffffff"
     bordercolor="#666666"
     borderopacity="1.0"
     inkscape:pageopacity="0.0"
     inkscape:pageshadow="2"
     inkscape:zoom="0.89847059"
     inkscape:cx="636.41862"
     inkscape:cy="330.26551"
     inkscape:document-units="mm"
     inkscape:current-layer="layer1"
     inkscape:document-rotation="0"
     showgrid="false"
     inkscape:snap-global="true"
     inkscape:window-width="2400"
     inkscape:window-height="1271"
     inkscape:window-x="2391"
     inkscape:window-y="-9"
     inkscape:window-maximized="1">
    <inkscape:grid
       type="xygrid"
       id="grid849" />
  </sodipodi:namedview>
  <metadata
     id="metadata5">
    <rdf:RDF>
      <cc:Work
         rdf:about="">
        <dc:format>image/svg+xml</dc:format>
        <dc:type
           rdf:resource="http://purl.org/dc/dcmitype/StillImage" />
        <dc:title></dc:title>
      </cc:Work>
    </rdf:RDF>
  </metadata>
  <g
     inkscape:label="Layer 1"
     inkscape:groupmode="layer"
     id="layer1">
    <path
       id="path847"
       style="fill:#828282;fill-opacity:1;stroke-width:0.658469"
       d="M 376.53906 0.51171875 C 183.61965 0.51682058 164.88576 0.6749342 141.4668 2.5078125 C 102.99522 5.5187751 71.532754 19.014263 46.388672 43.291016 C 18.913502 69.818469 4.2872419 101.27462 0.91796875 141.08594 C -1.2960757 167.24759 -1.4215308 180.037 -1.4140625 380.70117 C -1.408015 574.00424 -1.2490159 592.75128 0.58398438 616.17188 C 3.2438791 650.15776 14.518529 679.53265 33.988281 703.20508 C 38.907641 709.18626 50.163133 720.32384 55.865234 724.85156 C 74.245855 739.44681 96.064092 749.36235 120.92188 754.41992 C 127.79491 755.81823 145.24234 757.47118 162.20898 758.33008 C 177.79771 759.11921 576.97964 759.18269 592.51758 758.39844 C 619.84405 757.01925 629.84364 755.85021 643.20703 752.47656 C 669.49826 745.83899 690.758 734.19715 709.32617 716.26953 C 736.79952 689.74382 751.41725 658.30749 754.79883 618.47656 C 756.99613 592.59353 757.13451 578.57068 757.12695 378.46484 C 757.12189 185.54543 756.96382 166.80959 755.13086 143.39062 C 752.1199 104.91904 738.6224 73.456586 714.3457 48.3125 C 687.81992 20.83915 656.38167 6.2213735 616.55078 2.8398438 C 590.66775 0.64245848 576.64489 0.50649166 376.53906 0.51171875 z M 312.63672 174.86719 L 327.1582 203.91016 C 359.84291 194.22877 410.64984 194.22877 443.33398 203.91016 L 457.85742 174.86719 C 489.22036 181.34164 538.57046 187.24968 563.9043 207.87109 C 579.06776 220.21486 588.98153 244.80632 597.63672 261.99805 C 624.30654 314.96024 643.50312 376.47119 644.21484 436.26367 C 644.43266 454.61963 650.80985 490.14675 639.72461 505.66602 C 621.29601 531.46945 573.46595 548.34689 544.99023 559.70312 C 536.32809 563.15701 521.01242 572.11864 511.54883 568.5293 C 497.91286 563.35459 486.83549 536.59951 484.48047 523.39648 L 525.62695 506.45508 L 525.62695 501.61328 C 507.92924 497.64633 493.95256 506.81192 477.2207 511.63086 C 451.34984 519.08065 424.31768 524.54152 397.34766 525.72266 C 366.90924 527.05384 334.75598 523.17729 305.375 515.10547 C 285.79222 509.7249 265.20344 497.05336 244.86523 501.61328 L 244.86523 506.45508 L 286.01172 523.39648 C 283.65671 536.59951 272.57571 563.35459 258.93945 568.5293 C 249.47588 572.11864 234.16659 563.15701 225.50391 559.70312 C 197.02874 548.34689 149.19227 531.46945 130.76367 505.66602 C 119.90085 490.45652 126.18526 456.6349 126.26758 438.68555 C 126.55482 379.09891 145.15487 317.29009 171.6543 264.41992 C 180.63167 246.50927 190.78666 220.73043 206.58398 207.87109 C 231.91807 187.24968 281.27405 181.34164 312.63672 174.86719 z M 471.30078 341.21289 C 467.06234 341.30272 462.57813 342.01505 457.85742 343.43945 C 401.0495 360.58052 424.77539 461.85843 484.48047 442.38672 C 536.40649 425.45141 521.315 340.15285 471.30078 341.21289 z M 299.48438 341.23242 C 295.23833 341.31256 290.74323 342.01771 286.01172 343.44531 C 229.02205 360.642 252.87116 461.42526 312.63672 442.73047 C 364.54726 426.49128 349.58594 340.28626 299.48438 341.23242 z "
       transform="scale(0.26458333)" />
  </g>
</svg>
