<?xml version="1.0" encoding="UTF-8" standalone="no"?>
<svg
   xmlns:dc="http://purl.org/dc/elements/1.1/"
   xmlns:cc="http://creativecommons.org/ns#"
   xmlns:rdf="http://www.w3.org/1999/02/22-rdf-syntax-ns#"
   xmlns:svg="http://www.w3.org/2000/svg"
   xmlns="http://www.w3.org/2000/svg"
   xmlns:sodipodi="http://sodipodi.sourceforge.net/DTD/sodipodi-0.dtd"
   xmlns:inkscape="http://www.inkscape.org/namespaces/inkscape"
   width="200mm"
   height="200mm"
   viewBox="0 0 200 200"
   version="1.1"
   id="svg8"
   inkscape:version="1.0.1 (3bc2e813f5, 2020-09-07)"
   sodipodi:docname="SteamIcon.svg">
  <defs
     id="defs2" />
  <sodipodi:namedview
     id="base"
     pagecolor="#ffffff"
     bordercolor="#666666"
     borderopacity="1.0"
     inkscape:pageopacity="0.0"
     inkscape:pageshadow="2"
     inkscape:zoom="0.7"
     inkscape:cx="636.41862"
     inkscape:cy="330.26551"
     inkscape:document-units="mm"
     inkscape:current-layer="layer1"
     inkscape:document-rotation="0"
     showgrid="false"
     inkscape:snap-global="true"
     inkscape:window-width="1920"
     inkscape:window-height="1001"
     inkscape:window-x="-9"
     inkscape:window-y="-9"
     inkscape:window-maximized="1">
    <inkscape:grid
       type="xygrid"
       id="grid849" />
  </sodipodi:namedview>
  <metadata
     id="metadata5">
    <rdf:RDF>
      <cc:Work
         rdf:about="">
        <dc:format>image/svg+xml</dc:format>
        <dc:type
           rdf:resource="http://purl.org/dc/dcmitype/StillImage" />
        <dc:title />
      </cc:Work>
    </rdf:RDF>
  </metadata>
  <g
     inkscape:label="Layer 1"
     inkscape:groupmode="layer"
     id="layer1">
    <path
       style="fill:#828282;fill-opacity:1;stroke-width:0.368407"
       d="M 92.534133,198.78437 C 87.733738,198.34983 79.770042,197.00528 75.471777,195.90365 58.628654,191.58682 42.773542,182.50306 30.457402,170.11389 22.969366,162.58145 16.659406,153.74213 12.03838,144.31163 9.6228163,139.38198 6.4650023,131.66147 6.7660827,131.42145 c 0.062241,-0.0496 7.6667793,3.07261 16.8989033,6.93833 l 16.785671,7.02862 1.007143,3.17839 c 3.813151,12.03388 14.969067,20.23936 27.498231,20.2257 7.774858,-0.008 14.109033,-2.53215 19.805026,-7.89075 5.864612,-5.51722 8.808163,-12.20974 9.391651,-21.35294 l 0.09176,-1.43789 16.946762,-12.23137 16.94675,-12.2314 4.27773,-0.41947 c 5.38055,-0.52763 9.78861,-1.79588 14.29982,-4.11423 12.45032,-6.39825 20.25351,-18.571257 20.91794,-32.632034 0.56038,-11.85943 -3.583,-22.108596 -12.24541,-30.290371 -5.03367,-4.754377 -10.56227,-7.759415 -17.48726,-9.505091 -4.09893,-1.033264 -13.79221,-0.955386 -17.7728,0.142791 -11.42658,3.152426 -20.14744,10.266975 -25.163155,20.528339 -2.275975,4.656282 -3.385766,8.601155 -3.983638,14.160357 l -0.42083,3.912875 -11.889173,17.353751 -11.889158,17.353743 -3.215557,0.26682 c -4.499872,0.37341 -8.076606,1.37101 -11.746937,3.27643 l -3.150602,1.6356 -24.659,-10.27274 C 14.44751,99.394916 3.0743778,94.617382 2.736329,94.4282 2.0101326,94.021805 2.033344,92.524534 2.8570507,86.64651 5.0513046,70.986795 11.678304,55.156719 21.604779,41.863388 25.923527,36.079798 34.98334,27.026209 40.835408,22.645973 55.015342,12.032358 71.079844,5.5916828 88.436778,3.5613308 c 5.955455,-0.6966478 16.975722,-0.6966478 22.931172,0 22.55812,2.6387662 43.03979,12.7860152 58.93366,29.1975332 14.51024,14.98281 23.32987,32.737598 26.68757,53.724721 0.80976,5.06145 1.12381,18.405185 0.56352,23.944615 -2.30999,22.83859 -12.21519,43.72792 -28.378,59.84708 -7.68105,7.66032 -16.48949,13.96634 -25.98441,18.60242 -13.68954,6.68418 -26.16804,9.67393 -41.44588,9.9301 -4.153803,0.0696 -8.298388,0.0592 -9.210206,-0.0234 z M 64.90354,160.88252 c -3.537746,-0.79796 -7.426352,-2.86833 -10.119978,-5.38808 -2.277757,-2.13072 -4.913265,-5.67605 -4.515287,-6.07404 0.107772,-0.10777 3.211909,1.057 6.898211,2.58823 3.686317,1.53123 7.766085,2.96929 9.066177,3.19569 4.652494,0.8102 10.072679,-1.01602 13.52326,-4.55639 5.610888,-5.75691 6.181233,-14.14596 1.431507,-21.05571 -1.720083,-2.50232 -4.682751,-4.31134 -12.147882,-7.41757 -3.858724,-1.6056 -6.948644,-3.02803 -6.866492,-3.16095 0.345916,-0.55969 4.255644,-1.19559 7.335595,-1.19309 5.068517,0.004 9.495804,1.57049 13.262685,4.69237 3.499831,2.90059 5.988426,6.57145 7.279006,10.73713 1.111393,3.58731 1.109415,8.95075 -0.0042,12.52587 -2.17703,6.9864 -7.873482,12.63819 -14.815081,14.69892 -2.937911,0.87218 -7.473749,1.05121 -10.327071,0.40762 z m 64.4714,-60.85786 c -5.82429,-0.965024 -12.33137,-4.93078 -15.90615,-9.69407 -1.81656,-2.420511 -4.07792,-7.139367 -4.76678,-9.947018 -0.70496,-2.873234 -0.62693,-9.221681 0.1494,-12.157462 2.23734,-8.460548 8.7223,-15.424371 17.02364,-18.280672 2.6236,-0.902712 3.47323,-1.0143 7.73656,-1.016068 4.20907,-0.0014 5.14638,0.117102 7.73657,0.980367 7.90791,2.635786 13.83439,8.570478 16.63549,16.658545 0.92191,2.661977 1.01991,3.428665 1.01243,7.920768 -0.007,4.383411 -0.12434,5.323188 -0.98637,7.920767 -1.04748,3.156352 -2.81371,6.353368 -4.95087,8.961501 -3.07789,3.756171 -8.99939,7.307105 -13.92113,8.348055 -2.38071,0.503537 -7.58426,0.666247 -9.76279,0.305287 z m 10.36262,-7.131118 c 5.60971,-1.889777 10.06755,-6.278653 12.17546,-11.987094 0.65496,-1.773718 0.80526,-2.971426 0.80526,-6.417398 0,-4.711533 -0.62039,-7.055136 -2.74334,-10.36347 -3.68229,-5.738349 -9.4244,-8.908319 -16.17912,-8.931795 -8.61981,-0.02993 -15.60917,5.055722 -18.42154,13.404112 -0.9149,2.715864 -1.0894,7.477829 -0.38463,10.49604 1.72326,7.379832 8.4272,13.516889 16.04312,14.686521 2.08238,0.319808 6.44092,-0.12434 8.70479,-0.886916 z"
       id="path846" />
  </g>
</svg>
