<?xml version="1.0" encoding="UTF-8" standalone="no"?>
<svg
   xmlns:dc="http://purl.org/dc/elements/1.1/"
   xmlns:cc="http://creativecommons.org/ns#"
   xmlns:rdf="http://www.w3.org/1999/02/22-rdf-syntax-ns#"
   xmlns:svg="http://www.w3.org/2000/svg"
   xmlns="http://www.w3.org/2000/svg"
   xmlns:sodipodi="http://sodipodi.sourceforge.net/DTD/sodipodi-0.dtd"
   xmlns:inkscape="http://www.inkscape.org/namespaces/inkscape"
   width="200mm"
   height="200mm"
   viewBox="0 0 200 200"
   version="1.1"
   id="svg8"
   inkscape:version="1.0.1 (3bc2e813f5, 2020-09-07)"
   sodipodi:docname="TikTokIcon.svg">
  <defs
     id="defs2" />
  <sodipodi:namedview
     id="base"
     pagecolor="#ffffff"
     bordercolor="#666666"
     borderopacity="1.0"
     inkscape:pageopacity="0.0"
     inkscape:pageshadow="2"
     inkscape:zoom="0.7"
     inkscape:cx="636.41862"
     inkscape:cy="330.26551"
     inkscape:document-units="mm"
     inkscape:current-layer="layer1"
     inkscape:document-rotation="0"
     showgrid="false"
     inkscape:snap-global="true"
     inkscape:window-width="1920"
     inkscape:window-height="1001"
     inkscape:window-x="-9"
     inkscape:window-y="-9"
     inkscape:window-maximized="1">
    <inkscape:grid
       type="xygrid"
       id="grid849" />
  </sodipodi:namedview>
  <metadata
     id="metadata5">
    <rdf:RDF>
      <cc:Work
         rdf:about="">
        <dc:format>image/svg+xml</dc:format>
        <dc:type
           rdf:resource="http://purl.org/dc/dcmitype/StillImage" />
        <dc:title></dc:title>
      </cc:Work>
    </rdf:RDF>
  </metadata>
  <g
     inkscape:label="Layer 1"
     inkscape:groupmode="layer"
     id="layer1">
    <path
       style="fill:#828282;stroke-width:0.17422;fill-opacity:1"
       d="m 42.917711,200.64135 c -4.489091,-0.22725 -9.105326,-0.66434 -10.923816,-1.03431 -6.576955,-1.33815 -12.349447,-3.96186 -17.212653,-7.82352 -1.508681,-1.19796 -4.487043,-4.1448 -5.7886236,-5.72732 -5.1513719,-6.26333 -8.13438268,-14.03548 -8.8381465,-23.02758 -0.48498132,-6.1967 -0.52707059,-11.15676 -0.52867066,-62.30153 -0.001976,-53.092396 0.0312773,-56.475991 0.61707655,-63.397929 C 1.1343313,26.79575 5.004002,18.473048 12.273474,11.454326 18.926179,5.0311018 27.250851,1.4602636 37.42979,0.66361309 43.626058,0.17866404 48.582931,0.13655173 99.626193,0.13520187 c 52.944667,-0.001383 56.654837,0.0345893 63.503057,0.61598082 10.53859,0.89469641 18.85656,4.76243981 25.87484,12.03143031 6.42321,6.652706 9.99405,14.977376 10.7907,25.156317 0.48497,6.196268 0.52707,11.153138 0.52841,62.1964 0.002,52.94467 -0.0346,56.65483 -0.61597,63.50305 -0.89471,10.5386 -4.76245,18.85658 -12.03144,25.87484 -4.91283,4.74335 -10.53749,7.82345 -17.49371,9.57964 -3.53573,0.89261 -6.18171,1.2017 -13.41184,1.56661 -4.11108,0.2075 -109.728012,0.19069 -113.852529,-0.0181 z m 50.676377,-38.22332 c 6.934352,-0.90903 14.021152,-3.95444 19.534132,-8.39441 7.36253,-5.92956 12.49282,-14.66935 14.10134,-24.02261 0.53624,-3.11812 0.61506,-6.71272 0.61764,-28.16704 0.002,-11.857818 0.0526,-21.559676 0.11358,-21.559676 0.0611,0 0.62944,0.341481 1.2631,0.758851 6.3269,4.167364 13.66265,6.939962 21.23089,8.024372 l 0.74043,0.106099 V 76.121561 63.079505 l -1.80377,-0.110366 c -5.84522,-0.35764 -11.69642,-2.565068 -15.79242,-5.957843 -2.63562,-2.183137 -4.29436,-3.829438 -5.78521,-5.741826 -2.35603,-3.02223 -4.00663,-6.313991 -5.02456,-10.020367 -0.30263,-1.101939 -0.64317,-2.199523 -0.75678,-2.439075 l -0.20656,-0.435549 -7.67973,-0.04534 c -6.26664,-0.03701 -7.71559,-0.0021 -7.87445,0.18923 -0.14201,0.171103 -0.20777,12.039786 -0.24305,43.861581 l -0.0484,43.627 -0.37673,1.39375 c -0.93193,3.44784 -2.56809,6.24635 -5.04748,8.63334 -4.691516,4.51667 -10.980219,6.05747 -17.287676,4.23568 -3.147957,-0.90923 -5.405303,-2.30255 -8.135574,-5.02158 -1.705537,-1.69851 -2.036326,-2.12962 -2.822918,-3.67896 -0.490051,-0.96524 -1.10593,-2.45482 -1.368625,-3.31017 -0.443103,-1.44278 -0.478325,-1.78184 -0.487254,-4.69114 -0.01067,-3.46452 0.180711,-4.61294 1.175655,-7.05589 1.16302,-2.85564 3.262939,-5.54681 5.847083,-7.49332 4.127507,-3.1091 9.810914,-4.36634 14.570866,-3.22329 0.574921,0.13806 1.182516,0.25381 1.350202,0.25723 0.287151,0.006 0.304884,-0.62105 0.304884,-10.776767 0,-10.104966 -0.01916,-10.790965 -0.304884,-10.91001 -0.592364,-0.246813 -8.317213,-0.313648 -10.346848,-0.08952 -7.208958,0.796074 -13.53453,3.389911 -19.139825,7.848383 -2.067727,1.644675 -5.642411,5.362444 -7.29105,7.58289 -7.029954,9.468184 -9.475475,21.052544 -6.888792,32.631964 1.122813,5.02634 3.643698,10.48459 6.813128,14.75186 1.030659,1.38766 5.049968,5.33331 7.192496,7.06069 1.824154,1.47073 4.806844,3.36749 7.055893,4.48702 4.227397,2.10437 8.241266,3.26349 13.589131,3.92427 1.50477,0.18595 7.393685,0.093 9.21211,-0.14534 z"
       id="path847" />
  </g>
</svg>
